<svg width="46" height="51" viewBox="0 0 46 51" fill="none" xmlns="http://www.w3.org/2000/svg">
<path d="M45.9318 49.7501L37.1236 32.0617C37.0713 31.9568 36.991 31.8686 36.8915 31.8068C36.792 31.745 36.6772 31.712 36.5601 31.7117H28.0785L28.7311 30.3333C32.0779 29.0006 34.8557 26.5432 36.5866 23.3838C38.3174 20.2244 38.8932 16.5606 38.2147 13.0227C37.5362 9.48469 35.6459 6.29378 32.8691 3.99886C30.0922 1.70394 26.6024 0.448486 23 0.448486C19.3976 0.448486 15.9078 1.70394 13.1309 3.99886C10.3541 6.29378 8.46382 9.48469 7.78534 13.0227C7.10685 16.5606 7.68257 20.2244 9.41343 23.3838C11.1443 26.5432 13.9221 29.0006 17.2689 30.3333L17.9222 31.7117H9.43992C9.32246 31.7117 9.20732 31.7444 9.10745 31.8063C9.00757 31.8681 8.92691 31.9565 8.87452 32.0617L0.0663143 49.7501C0.0181999 49.8467 -0.00438728 49.9539 0.000704085 50.0617C0.00579545 50.1694 0.0383958 50.2741 0.0953994 50.3657C0.152403 50.4573 0.23191 50.5327 0.326345 50.5849C0.42078 50.637 0.526996 50.6641 0.634871 50.6636H45.3683C45.4759 50.6636 45.5817 50.6361 45.6757 50.5837C45.7697 50.5313 45.8488 50.4558 45.9054 50.3643C45.9621 50.2728 45.9944 50.1684 45.9993 50.0609C46.0043 49.9534 45.9817 49.8464 45.9337 49.7501H45.9318ZM38.3713 37.3973H28.6338L27.9496 32.9751H36.169L38.3713 37.3973ZM8.77155 15.9399C8.77219 13.3451 9.48238 10.7999 10.8253 8.57969C12.1682 6.35944 14.0926 4.54868 16.3905 3.34333C18.6883 2.13798 21.272 1.58393 23.862 1.74113C26.452 1.89833 28.9497 2.76079 31.0849 4.23519C33.2201 5.7096 34.9114 7.73981 35.9759 10.1062C37.0405 12.4725 37.4376 15.085 37.1244 17.6608C36.8113 20.2366 35.7997 22.6777 34.1991 24.72C32.5986 26.7624 30.47 28.3281 28.0437 29.2479C27.891 29.306 27.7667 29.4211 27.6969 29.5689L23.0032 39.487L18.3031 29.5689C18.2328 29.4216 18.1087 29.3069 17.9563 29.2486C15.2616 28.2155 12.9423 26.3917 11.3031 24.0165C9.66392 21.6413 8.78143 18.8258 8.77155 15.9399ZM9.83096 32.9751H18.0504L17.3662 37.3973H7.62875L9.83096 32.9751ZM4.48337 43.7146H16.3889L15.5096 49.4001H1.65196L4.48337 43.7146ZM16.7882 49.4001L17.7503 43.1795C17.7643 43.0893 17.7586 42.9972 17.7335 42.9095C17.7085 42.8218 17.6648 42.7405 17.6053 42.6713C17.5459 42.6021 17.4722 42.5465 17.3893 42.5085C17.3063 42.4705 17.2161 42.4509 17.1249 42.4511H5.11257L6.99955 38.6607H17.9076C18.0584 38.6607 18.2042 38.6067 18.3186 38.5086C18.4331 38.4105 18.5087 38.2746 18.5318 38.1256L19.13 34.2601L22.4314 41.2281C22.4827 41.3361 22.5635 41.4273 22.6645 41.4912C22.7656 41.5551 22.8827 41.589 23.0022 41.589C23.1218 41.589 23.2388 41.5551 23.3399 41.4912C23.4409 41.4273 23.5217 41.3361 23.573 41.2281L26.8706 34.2639L27.4682 38.1256C27.4913 38.2746 27.5669 38.4105 27.6814 38.5086C27.7958 38.6067 27.9416 38.6607 28.0924 38.6607H39.0005L40.8874 42.4511H28.8751C28.784 42.4511 28.6939 42.4709 28.6112 42.5089C28.5284 42.547 28.4548 42.6026 28.3955 42.6718C28.3362 42.741 28.2926 42.8222 28.2677 42.9098C28.2427 42.9974 28.237 43.0894 28.2509 43.1795L29.2118 49.4001H16.7882ZM30.4904 49.4001L29.6111 43.7146H41.5166L44.348 49.4001H30.4904Z" fill="#4282aa"/>
<path d="M30.5811 23.4993V13.5009L31.5716 14.2053C31.7082 14.3024 31.8777 14.3412 32.0429 14.3133C32.2081 14.2854 32.3555 14.193 32.4526 14.0565C32.5496 13.9199 32.5885 13.7504 32.5606 13.5852C32.5327 13.42 32.4403 13.2726 32.3038 13.1755L23.3699 6.82161C23.2626 6.74472 23.1339 6.70337 23.0019 6.70337C22.8699 6.70337 22.7412 6.74472 22.6339 6.82161L19.8416 8.83809V8.33776C19.8416 8.17022 19.7751 8.00953 19.6566 7.89106C19.5381 7.77259 19.3775 7.70603 19.2099 7.70603H16.0513C15.8837 7.70603 15.723 7.77259 15.6046 7.89106C15.4861 8.00953 15.4195 8.17022 15.4195 8.33776V12.0296L13.8851 13.1389C13.8178 13.1875 13.7607 13.2488 13.7172 13.3195C13.6736 13.3901 13.6444 13.4686 13.6311 13.5505C13.6179 13.6324 13.6209 13.7162 13.6401 13.7969C13.6592 13.8776 13.694 13.9538 13.7426 14.0211C13.7912 14.0884 13.8525 14.1455 13.9232 14.189C13.9938 14.2326 14.0723 14.2618 14.1542 14.2751C14.2361 14.2883 14.3199 14.2852 14.4006 14.2661C14.4814 14.247 14.5575 14.2121 14.6248 14.1636L15.4195 13.5881V23.4993C15.4195 23.6668 15.4861 23.8275 15.6046 23.946C15.723 24.0644 15.8837 24.131 16.0513 24.131H29.9493C30.1169 24.131 30.2776 24.0644 30.396 23.946C30.5145 23.8275 30.5811 23.6668 30.5811 23.4993ZM18.5782 8.96949C18.5782 8.96949 18.5952 9.68777 18.6047 9.72757L16.683 11.1174V8.96949H18.5782ZM29.3176 22.8675H16.683V12.6765L23.0066 8.11223L29.3378 12.6165C29.3321 12.6506 29.3176 22.8675 29.3176 22.8675Z" fill="#4282aa"/>
<path d="M24.8948 14.655H21.1044C20.9368 14.655 20.7762 14.7216 20.6577 14.8401C20.5392 14.9585 20.4727 15.1192 20.4727 15.2868V19.0771C20.4727 19.2447 20.5392 19.4054 20.6577 19.5238C20.7762 19.6423 20.9368 19.7089 21.1044 19.7089H24.8948C25.0623 19.7089 25.223 19.6423 25.3415 19.5238C25.4599 19.4054 25.5265 19.2447 25.5265 19.0771V15.2868C25.5265 15.1192 25.4599 14.9585 25.3415 14.8401C25.223 14.7216 25.0623 14.655 24.8948 14.655ZM24.263 18.4454H21.7361V15.9185H24.263V18.4454Z" fill="#4282aa"/>
</svg>
