<svg width="45" height="37" viewBox="0 0 45 37" fill="none" xmlns="http://www.w3.org/2000/svg">
<path d="M41.2692 4.90962H27.3942V4.625C27.3942 2.06346 25.3308 0 22.7692 0H21.275C18.7135 0 16.65 2.06346 16.65 4.625V4.90962H2.84615C1.28077 4.90962 0 6.19038 0 7.75577V34.1538C0 35.7192 1.28077 37 2.84615 37H41.2692C42.8346 37 44.1154 35.7192 44.1154 34.1538V7.75577C44.1154 6.19038 42.8346 4.90962 41.2692 4.90962ZM18.1442 4.625C18.1442 2.84615 19.5673 1.42308 21.3462 1.42308H22.8404C24.6192 1.42308 26.0423 2.84615 26.0423 4.625V4.90962H18.2154V4.625H18.1442ZM42.6923 34.1538C42.6923 34.9365 42.0519 35.5769 41.2692 35.5769H2.84615C2.06346 35.5769 1.42308 34.9365 1.42308 34.1538V7.75577C1.42308 6.97308 2.06346 6.33269 2.84615 6.33269H41.2692C42.0519 6.33269 42.6923 6.97308 42.6923 7.75577V34.1538Z" fill="#4282aa"/>
<path d="M15.5119 20.1366C16.2234 19.2116 16.6503 18.0019 16.6503 16.7212C16.6503 13.7327 14.3734 11.3135 11.5273 11.3135C8.6811 11.3135 6.40418 13.8039 6.40418 16.7212C6.40418 18.0019 6.8311 19.2116 7.54264 20.1366C5.26572 21.4173 3.77148 23.8366 3.77148 26.6116V29.8846C3.77148 30.3116 4.0561 30.5962 4.48302 30.5962H18.5715C18.9984 30.5962 19.283 30.3116 19.283 29.8846V26.6827C19.283 23.9077 17.7888 21.4173 15.5119 20.1366ZM11.5273 12.7366C13.5907 12.7366 15.2273 14.5154 15.2273 16.7212C15.2273 18.9269 13.5907 20.7058 11.5273 20.7058C9.46379 20.7058 7.82725 18.9269 7.82725 16.7212C7.82725 14.5154 9.46379 12.7366 11.5273 12.7366ZM17.8599 29.1731H5.19456V26.6827C5.19456 24.2635 6.54648 22.2 8.60995 21.275C9.46379 21.8442 10.4599 22.2 11.5273 22.2C12.7369 22.2 13.8753 21.7731 14.7292 20.9904L14.5869 21.275C16.5792 22.2712 17.8599 24.3346 17.8599 26.6827V29.1731Z" fill="#4282aa"/>
<path d="M39.9169 14.0173H25.6861C25.2592 14.0173 24.9746 14.3019 24.9746 14.7288C24.9746 15.1557 25.2592 15.4403 25.6861 15.4403H39.9169C40.3438 15.4403 40.6285 15.1557 40.6285 14.7288C40.6285 14.3019 40.2727 14.0173 39.9169 14.0173Z" fill="#4282aa"/>
<path d="M39.9169 20.2789H25.6861C25.2592 20.2789 24.9746 20.5635 24.9746 20.9904C24.9746 21.4173 25.2592 21.7019 25.6861 21.7019H39.9169C40.3438 21.7019 40.6285 21.4173 40.6285 20.9904C40.6285 20.5635 40.2727 20.2789 39.9169 20.2789Z" fill="#4282aa"/>
<path d="M39.9169 26.4692H25.6861C25.2592 26.4692 24.9746 26.7538 24.9746 27.1807C24.9746 27.6076 25.2592 27.8923 25.6861 27.8923H39.9169C40.3438 27.8923 40.6285 27.6076 40.6285 27.1807C40.6285 26.7538 40.2727 26.4692 39.9169 26.4692Z" fill="#4282aa"/>
</svg>
