<svg width="53" height="42" viewBox="0 0 53 42" fill="none" xmlns="http://www.w3.org/2000/svg">
<path d="M34.2448 0.380695C34.1174 0.387574 33.9951 0.43388 33.8951 0.513215C33.7951 0.592551 33.7222 0.700998 33.6864 0.823569L31.6069 7.90955C31.5654 8.04133 31.5695 8.18321 31.6184 8.31241C31.6673 8.44162 31.7581 8.55064 31.8764 8.622L44.9701 16.1509L42.852 26.568L30.2975 35.2137C30.2299 35.2602 30.1722 35.3197 30.1277 35.3886C30.0832 35.4575 30.0527 35.5346 30.0381 35.6153C30.0235 35.6961 30.025 35.7789 30.0425 35.8591C30.06 35.9393 30.0932 36.0152 30.1402 36.0824C30.1871 36.1497 30.247 36.2071 30.3162 36.2511C30.3854 36.2952 30.4626 36.3252 30.5435 36.3393C30.6243 36.3534 30.7071 36.3514 30.7872 36.3333C30.8673 36.3153 30.943 36.2816 31.0099 36.2342L43.7377 27.4538C43.875 27.3661 43.9719 27.2276 44.0073 27.0687L46.0869 16.7863L46.9534 17.2869C47.0735 17.3543 47.2127 17.3796 47.3488 17.3587C47.4849 17.3377 47.6101 17.2718 47.7043 17.1714L52.8263 11.8376C52.8915 11.7703 52.9405 11.689 52.9696 11.5999C52.9987 11.5108 53.007 11.4162 52.994 11.3233C52.981 11.2305 52.947 11.1418 52.8946 11.0641C52.8422 10.9864 52.7727 10.9217 52.6915 10.8749L34.5914 0.457716C34.486 0.398595 34.3654 0.371809 34.2448 0.380695ZM34.6492 1.92113L51.4014 11.5488L47.1459 15.9776L32.9162 7.79402L34.6492 1.92113ZM30.413 11.337C30.2682 11.3476 30.1319 11.409 30.0279 11.5103L24.8675 16.0546C24.7477 16.1573 24.6719 16.302 24.6557 16.4589L22.9804 36.9274C22.9723 37.0429 22.9969 37.1584 23.0514 37.2605C23.1059 37.3627 23.1881 37.4474 23.2885 37.5051L24.7134 38.333C24.7841 38.3741 24.8622 38.4008 24.9432 38.4114C25.0242 38.422 25.1066 38.4164 25.1854 38.3949C25.2643 38.3734 25.338 38.3364 25.4025 38.2861C25.4669 38.2358 25.5207 38.1732 25.5607 38.102L33.5902 24.2574C35.1712 24.8237 36.9775 24.2144 37.8456 22.7169C38.8206 21.0351 38.2443 18.8741 36.5555 17.9031C34.8667 16.9321 32.6781 17.5114 31.7031 19.1932C30.836 20.6889 31.2132 22.5602 32.4926 23.6412L24.7904 36.9467L24.2513 36.6386L25.8687 16.8055L30.8559 12.4346C30.9608 12.3521 31.0361 12.2378 31.0705 12.1088C31.1048 11.9799 31.0964 11.8433 31.0465 11.7195C30.9966 11.5958 30.9078 11.4916 30.7936 11.4226C30.6793 11.3536 30.5458 11.3236 30.413 11.337ZM34.6107 18.654C35.0524 18.6238 35.5228 18.7226 35.9393 18.9621C37.0501 19.6008 37.4279 20.9945 36.7865 22.1008C36.1452 23.207 34.7395 23.5675 33.6287 22.9287C32.5179 22.2901 32.1401 20.9156 32.7814 19.8094C33.1823 19.118 33.8744 18.7044 34.6107 18.654ZM13.372 34.5397C12.5278 34.5397 11.8633 35.0164 11.408 35.5988C10.9526 36.1812 10.6258 36.8793 10.3104 37.5436C9.99499 38.2077 9.68402 38.8409 9.34763 39.2573C9.01125 39.6737 8.71599 39.8708 8.26933 39.8735C8.09762 39.8735 8.047 39.8371 7.90348 39.7002C7.75996 39.5631 7.57987 39.3046 7.34507 39.007C6.87548 38.4117 6.071 37.6784 4.68783 37.6784H0.624948C0.543298 37.6772 0.462233 37.6923 0.386463 37.7227C0.310693 37.7532 0.241731 37.7984 0.183583 37.8557C0.125435 37.9131 0.0792611 37.9814 0.0477453 38.0567C0.0162295 38.132 0 38.2129 0 38.2945C0 38.3762 0.0162295 38.457 0.0477453 38.5324C0.0792611 38.6077 0.125435 38.676 0.183583 38.7333C0.241731 38.7907 0.310693 38.8359 0.386463 38.8663C0.462233 38.8968 0.543298 38.9119 0.624948 38.9107H4.68783C5.69279 38.9107 5.98616 39.275 6.38231 39.7772C6.58038 40.0282 6.77054 40.3131 7.05624 40.5859C7.34195 40.8588 7.78342 41.1088 8.28859 41.1058C9.1521 41.0997 9.83776 40.6126 10.3104 40.0275C10.783 39.4424 11.1103 38.75 11.4272 38.0827C11.7441 37.4154 12.0461 36.765 12.3707 36.3497C12.6954 35.9346 12.964 35.7721 13.372 35.7721C13.7832 35.7721 13.8383 35.8459 13.9497 36.0031C14.061 36.1603 14.1648 36.4846 14.277 36.8889C14.3892 37.2932 14.5202 37.7714 14.8932 38.1983C15.2662 38.6251 15.8873 38.9107 16.6647 38.9107H19.4952C19.5769 38.9119 19.6579 38.8968 19.7337 38.8663C19.8095 38.8359 19.8784 38.7907 19.9366 38.7333C19.9947 38.676 20.0409 38.6077 20.0724 38.5324C20.1039 38.457 20.1202 38.3762 20.1202 38.2945C20.1202 38.2129 20.1039 38.132 20.0724 38.0567C20.0409 37.9814 19.9947 37.9131 19.9366 37.8557C19.8784 37.7984 19.8095 37.7532 19.7337 37.7227C19.6579 37.6923 19.5769 37.6772 19.4952 37.6784H16.6647C16.1341 37.6784 15.9594 37.552 15.8174 37.3895C15.6754 37.2271 15.5767 36.943 15.4708 36.5616C15.365 36.1801 15.2761 35.7228 14.9702 35.2907C14.6643 34.8586 14.0733 34.5397 13.372 34.5397Z" fill="#4282aa"/>
</svg>
