<svg width="48" height="49" viewBox="0 0 48 49" fill="none" xmlns="http://www.w3.org/2000/svg">
<circle cx="24" cy="24.5" r="24" fill="#F4F6FB"/>
<path d="M28.8012 18.0996H19.2012V22.8996H28.8012V18.0996Z" stroke="#3F5BD9" stroke-width="1.5" stroke-linecap="round" stroke-linejoin="round"/>
<path d="M32 33.3004V15.7004C32 15.2586 31.6418 14.9004 31.2 14.9004L16.8 14.9004C16.3582 14.9004 16 15.2586 16 15.7004V33.3004C16 33.7422 16.3582 34.1004 16.8 34.1004H31.2C31.6418 34.1004 32 33.7422 32 33.3004Z" stroke="#3F5BD9" stroke-width="1.5" stroke-linecap="round" stroke-linejoin="round"/>
<path d="M20.4508 26.5008C20.4508 26.7493 20.2493 26.9508 20.0008 26.9508C19.7523 26.9508 19.5508 26.7493 19.5508 26.5008C19.5508 26.2523 19.7523 26.0508 20.0008 26.0508C20.2493 26.0508 20.4508 26.2523 20.4508 26.5008Z" fill="#3F5BD9" stroke="#3F5BD9" stroke-width="1.5"/>
<path d="M24.4498 26.5008C24.4498 26.7493 24.2483 26.9508 23.9998 26.9508C23.7513 26.9508 23.5498 26.7493 23.5498 26.5008C23.5498 26.2523 23.7513 26.0508 23.9998 26.0508C24.2483 26.0508 24.4498 26.2523 24.4498 26.5008Z" fill="#3F5BD9" stroke="#3F5BD9" stroke-width="1.5"/>
<path d="M28.4508 26.5008C28.4508 26.7493 28.2493 26.9508 28.0008 26.9508C27.7523 26.9508 27.5508 26.7493 27.5508 26.5008C27.5508 26.2523 27.7523 26.0508 28.0008 26.0508C28.2493 26.0508 28.4508 26.2523 28.4508 26.5008Z" fill="#3F5BD9" stroke="#3F5BD9" stroke-width="1.5"/>
<path d="M20.4508 30.5008C20.4508 30.7493 20.2493 30.9508 20.0008 30.9508C19.7523 30.9508 19.5508 30.7493 19.5508 30.5008C19.5508 30.2523 19.7523 30.0508 20.0008 30.0508C20.2493 30.0508 20.4508 30.2523 20.4508 30.5008Z" fill="#3F5BD9" stroke="#3F5BD9" stroke-width="1.5"/>
<path d="M24.4498 30.5008C24.4498 30.7493 24.2483 30.9508 23.9998 30.9508C23.7513 30.9508 23.5498 30.7493 23.5498 30.5008C23.5498 30.2523 23.7513 30.0508 23.9998 30.0508C24.2483 30.0508 24.4498 30.2523 24.4498 30.5008Z" fill="#3F5BD9" stroke="#3F5BD9" stroke-width="1.5"/>
<path d="M28.4508 30.5008C28.4508 30.7493 28.2493 30.9508 28.0008 30.9508C27.7523 30.9508 27.5508 30.7493 27.5508 30.5008C27.5508 30.2523 27.7523 30.0508 28.0008 30.0508C28.2493 30.0508 28.4508 30.2523 28.4508 30.5008Z" fill="#3F5BD9" stroke="#3F5BD9" stroke-width="1.5"/>
</svg>
